<svg width="240" height="64" viewBox="0 0 240 64" fill="none" xmlns="http://www.w3.org/2000/svg"><rect width="64" height="64" rx="16" fill="#111111"/><path d="M18 42V18h18c6.5 0 11 4.1 11 10.2S42.5 38.4 36 38.4H27V42H18Zm9-11.1h8.2c1.8 0 3-1.1 3-2.7s-1.2-2.7-3-2.7H27v5.4Z" fill="#FF7A00"/><path d="M82 43V18h18.2c6.4 0 10.8 4 10.8 9.9 0 5.8-4.4 9.8-10.8 9.8H91.5V43H82Zm9.5-13h7.7c1.8 0 3-1 3-2.5s-1.2-2.5-3-2.5h-7.7v5Zm24.5 13V18h21v7.5h-11.5v3h10v7h-10V43H116Zm26 0V18h9.5v25H142Zm15 0V18h10.5l9.7 13.8V18h9V43h-9.8l-10.2-14.4V43H157Zm35 0V18H217v7.5h-15v2h13.4v6.8H202v2.2h15.4V43H192Z" fill="#111111"/><text x="82" y="58" fill="#FF7A00" font-family="Arial, sans-serif" font-size="10" font-weight="700">FIBER • LOW VOLTAGE • NETWORKS</text></svg>
